<svg width="314" height="252" viewBox="0 0 314 252" fill="none" xmlns="http://www.w3.org/2000/svg">
<path fill-rule="evenodd" clip-rule="evenodd" d="M58.0586 119.168C54.488 92.445 59.5679 61.7246 84.0622 32.8431C95.551 20.8753 116.585 7.03806 142.266 4.43453C167.831 1.84277 198.293 10.3515 228.865 43.5728C246.276 67.6508 268.466 130.593 217.83 190.079L218.944 191.027L216.783 192.758L219.284 195.88L279.284 147.8L278.946 147.378C282.967 144.813 287.687 142.067 292.246 139.964C297.109 137.722 301.491 136.356 304.586 136.472C306.083 136.528 307.068 136.923 307.703 137.519C308.327 138.106 308.884 139.141 309.008 141.043C309.263 144.947 307.638 151.607 302.735 162.194C295.268 170.013 278.142 187.167 261.833 202.644C253.593 210.462 245.583 217.833 239.142 223.349C235.918 226.11 233.113 228.384 230.883 230.012C229.766 230.828 228.82 231.461 228.056 231.908C227.247 232.381 226.791 232.556 226.614 232.594L227.454 236.505C228.282 236.327 229.193 235.877 230.075 235.361C231.001 234.82 232.067 234.101 233.241 233.243C235.593 231.526 238.487 229.176 241.743 226.388C248.261 220.806 256.329 213.381 264.586 205.545C281.102 189.873 298.461 172.477 305.857 164.716L306.084 164.478L306.223 164.18C311.261 153.361 313.328 145.811 313 140.783C312.831 138.2 312.016 136.083 310.442 134.604C308.879 133.136 306.839 132.553 304.736 132.474C300.629 132.321 295.506 134.056 290.571 136.332C285.556 138.645 280.425 141.666 276.195 144.391L276.517 144.892L227.805 183.926C270.991 125.17 249.29 64.91 232.035 41.1303L231.967 41.0367L231.888 40.9515C200.535 6.83787 168.841 -2.28018 141.863 0.454927C115.009 3.17734 93.1198 17.6115 81.1328 30.1188L81.091 30.1624L81.052 30.2084C55.6969 60.0775 50.3918 91.9915 54.0939 119.698C56.934 140.953 65.0708 159.734 73.4931 173.279C71.7818 172.195 69.9722 171.052 68.0977 169.874C57.2677 163.069 44.2147 155.062 35.4809 150.365L35.3646 150.303L35.241 150.256C25.5516 146.592 18.3156 144.963 13.0027 144.867C7.68599 144.77 3.93344 146.218 1.82661 149.126C-0.223386 151.955 -0.294018 155.607 0.384061 158.966C0.897762 161.511 1.88184 164.109 3.0522 166.486L2.54141 166.531C2.62934 167.523 3.04968 168.477 3.56355 169.33C4.09045 170.205 4.80175 171.114 5.63774 172.04C7.30974 173.894 9.6237 175.973 12.3663 178.182C17.8614 182.61 25.281 187.723 33.2555 192.827C49.2055 203.035 67.5762 213.331 77.6646 218.198L79.4026 214.595C69.491 209.814 51.2617 199.602 35.4117 189.458C27.4862 184.386 20.2058 179.362 14.8759 175.068C12.206 172.916 10.0762 170.989 8.6076 169.361C7.87616 168.55 7.34424 167.853 6.99413 167.273L7.76663 166.828C6.21109 164.128 4.8821 161.034 4.30499 158.175C3.71745 155.264 3.97807 152.974 5.06557 151.473C6.09623 150.051 8.28744 148.782 12.9301 148.866C17.5564 148.95 24.2572 150.388 33.7026 153.951C42.3023 158.584 55.1816 166.482 65.9695 173.261C71.1096 176.49 75.7618 179.458 79.2295 181.683C79.8302 182.482 80.4264 183.249 81.0162 183.985L81.8139 183.345C82.6499 183.884 83.3596 184.343 83.9236 184.708C84.4137 185.025 84.7937 185.271 85.0511 185.438L85.3435 185.628L85.4178 185.676L85.4364 185.689L85.441 185.692L85.4421 185.692C85.4424 185.692 85.4425 185.692 86.5336 184.016C87.6248 182.34 87.6246 182.34 87.6243 182.34L87.623 182.339L87.6182 182.336L87.599 182.323L87.5237 182.274L87.229 182.083C86.9701 181.915 86.5884 181.667 86.0967 181.349C85.127 180.722 83.7291 179.819 82.0004 178.709C72.2831 165.599 61.3938 144.128 58.0586 119.168ZM171.715 192.397C172.338 192.471 173.301 192.641 174.046 193.226C174.902 193.897 175.572 194.654 176.12 195.272L176.12 195.272L176.12 195.272L176.12 195.273L176.163 195.321C176.749 195.982 177.21 196.494 177.769 196.933C177.984 197.102 178.133 197.289 178.18 197.348L178.182 197.351C178.209 197.385 178.236 197.421 178.263 197.456L178.287 197.489L178.311 197.522C178.326 197.543 178.341 197.564 178.355 197.584L178.383 197.624C178.502 197.797 178.635 198.005 178.768 198.222C179.037 198.658 179.353 199.203 179.653 199.736C179.952 200.27 180.246 200.812 180.469 201.246C180.579 201.46 180.681 201.667 180.76 201.84C180.799 201.925 180.844 202.028 180.883 202.133C180.902 202.185 180.93 202.263 180.956 202.356L180.956 202.359C180.972 202.417 181.034 202.639 181.034 202.921C181.034 203.693 181.298 204.256 181.802 205.212L181.857 205.316C182.339 206.226 183.034 207.538 183.034 209.299C183.034 213.013 182.302 217.22 180.907 221.034C179.523 224.819 177.408 228.425 174.491 230.715C173.446 231.535 172.534 232.53 171.505 233.651L171.502 233.654L171.278 233.898C171.157 234.029 171.035 234.162 170.91 234.297C169.696 235.608 168.273 237.067 166.491 238.039C164.56 239.091 163.745 240.189 162.958 241.514C162.821 241.747 162.679 241.996 162.53 242.259L162.53 242.26L162.53 242.26C161.799 243.552 160.877 245.181 159.212 246.814C158.647 247.368 158.156 247.971 157.632 248.615L157.632 248.615L157.554 248.711L157.54 248.728L157.54 248.728L157.54 248.728C157.041 249.341 156.419 250.103 155.73 250.649C154.975 251.246 153.864 251.8 152.491 251.483C151.276 251.202 150.303 250.326 149.484 249.321C149.202 248.976 148.853 248.523 148.48 248.038L148.477 248.034L148.477 248.033L148.476 248.033L148.474 248.03L148.362 247.884L148.201 247.675C147.711 247.04 147.17 246.347 146.608 245.667C145.426 244.239 144.332 243.104 143.544 242.621C142.91 242.232 142.203 241.826 141.433 241.384L141.432 241.383L141.43 241.382L141.428 241.381L141.425 241.379L141.147 241.219C140.279 240.72 139.348 240.181 138.438 239.612C136.657 238.499 134.769 237.161 133.484 235.584C132.555 234.445 131.044 232.545 129.735 230.529C129.08 229.521 128.453 228.449 127.971 227.401C127.502 226.382 127.104 225.243 127.037 224.137C126.968 222.975 126.345 222.328 125.015 220.973C123.754 219.689 122.034 217.87 122.034 214.696C122.034 210.901 122.157 206.291 125.337 202.823C127.858 200.075 130.266 198.306 132.695 197.508C135.203 196.684 137.535 196.959 139.704 197.913C141.799 198.835 143.739 200.387 145.598 202.108C146.756 203.179 147.977 204.409 149.223 205.663L149.356 205.798C150.007 205.122 150.76 204.385 151.529 203.669C152.462 202.801 153.439 201.942 154.31 201.243C155.115 200.596 156.015 199.93 156.734 199.616C156.971 199.513 157.461 199.171 158.228 198.485C158.842 197.937 159.5 197.293 160.195 196.614L160.342 196.47L160.563 196.254C161.366 195.471 162.224 194.645 163.01 194.007C163.404 193.687 163.827 193.375 164.256 193.129C164.649 192.905 165.236 192.624 165.918 192.584C166.057 192.576 166.312 192.554 166.637 192.526C167.396 192.46 168.537 192.362 169.472 192.331C170.202 192.308 170.995 192.312 171.715 192.397ZM149.533 211.236C150.202 211.408 150.942 211.229 151.461 210.7C151.959 210.192 152.132 209.486 151.981 208.841C152.619 208.165 153.418 207.376 154.255 206.597C155.137 205.775 156.04 204.984 156.815 204.361C157.204 204.049 157.546 203.79 157.829 203.595C157.969 203.498 158.086 203.422 158.179 203.367C158.225 203.339 158.262 203.319 158.29 203.304L158.304 203.297L158.314 203.292L158.322 203.288L158.33 203.284L158.332 203.283L158.333 203.283C159.221 202.896 160.133 202.147 160.893 201.468C161.58 200.854 162.313 200.137 163.005 199.461L163.008 199.457C163.126 199.343 163.242 199.229 163.356 199.118C164.174 198.319 164.908 197.618 165.531 197.112C165.842 196.86 166.078 196.696 166.243 196.601L166.265 196.589L166.28 196.581L166.304 196.568C166.623 196.547 166.955 196.517 167.309 196.485C167.978 196.425 168.724 196.358 169.602 196.329C170.249 196.308 170.814 196.319 171.247 196.37C171.49 196.398 171.619 196.432 171.669 196.446C172.178 196.862 172.615 197.349 173.17 197.974L173.205 198.013C173.716 198.591 174.335 199.289 175.114 199.931C175.176 200.022 175.259 200.151 175.362 200.319C175.593 200.694 175.881 201.189 176.165 201.694C176.448 202.199 176.717 202.696 176.911 203.073C176.965 203.178 177.01 203.268 177.046 203.343C177.143 204.956 177.779 206.16 178.235 207.022L178.265 207.079C178.783 208.061 179.034 208.587 179.034 209.299C179.034 212.534 178.388 216.276 177.151 219.66C175.902 223.073 174.128 225.914 172.021 227.568C170.695 228.61 169.528 229.885 168.506 231.002L168.503 231.005C168.323 231.202 168.147 231.394 167.976 231.579C166.763 232.889 165.726 233.9 164.576 234.527C161.82 236.029 160.539 237.752 159.518 239.474C159.327 239.796 159.151 240.105 158.98 240.404C158.264 241.66 157.642 242.75 156.411 243.959C155.68 244.675 155.059 245.439 154.559 246.054L154.559 246.054L154.559 246.054L154.453 246.184C153.896 246.867 153.552 247.265 153.268 247.496C153.134 247.394 152.907 247.19 152.584 246.794C152.34 246.495 152.035 246.099 151.664 245.616L151.655 245.605C151.563 245.486 151.468 245.361 151.368 245.232C150.872 244.589 150.298 243.852 149.689 243.117C148.53 241.716 147.058 240.084 145.635 239.211C144.947 238.789 144.184 238.351 143.421 237.913L143.141 237.752C142.273 237.253 141.4 236.746 140.558 236.22C138.837 235.144 137.429 234.094 136.584 233.056C135.677 231.945 134.277 230.18 133.09 228.351C132.496 227.436 131.978 226.541 131.605 225.73C131.219 224.89 131.053 224.279 131.03 223.898C130.868 221.188 129.221 219.532 128.101 218.405L128.001 218.304L127.926 218.228L127.869 218.171C126.691 216.971 126.034 216.162 126.034 214.696C126.034 210.744 126.287 207.706 128.285 205.527C130.567 203.039 132.421 201.809 133.944 201.308C135.389 200.833 136.699 200.961 138.093 201.574C139.562 202.221 141.106 203.401 142.881 205.044C143.989 206.069 145.094 207.182 146.285 208.382L146.493 208.592L146.762 208.863L147.039 209.142C146.978 209.924 147.383 210.703 148.126 211.081C148.578 211.312 149.077 211.354 149.533 211.236ZM166.365 196.539C166.365 196.539 166.363 196.54 166.359 196.542C166.363 196.54 166.365 196.539 166.365 196.539ZM189.499 75.485C189.499 72.86 188.1 70.8223 186.037 69.8271C184.299 68.9891 182.434 69.0332 181.07 69.3463C180.349 69.5118 179.572 69.7946 178.852 70.2431C178.805 70.2726 178.756 70.304 178.706 70.3372C176.877 70.7054 175.499 72.3211 175.499 74.2585C175.499 75.8225 175.674 77.8192 177.294 79.4125C177.818 79.9273 178.425 80.308 178.678 80.4665L178.739 80.505C179.035 80.6928 179.246 80.8312 179.495 81.0346C181.211 82.4378 183.158 82.2342 184.293 81.8635C185.378 81.5092 186.243 80.8781 186.815 80.381C187.424 79.8517 187.975 79.2353 188.403 78.6177C188.618 78.3089 188.848 77.9333 189.04 77.5102C189.195 77.1684 189.499 76.4259 189.499 75.485ZM139.145 90.748C139.268 91.0517 139.39 91.3551 139.512 91.658C140.866 95.024 142.191 98.3157 143.558 100.98C144.306 102.439 145.101 103.78 145.967 104.881C146.822 105.969 147.839 106.943 149.068 107.505C150.372 108.101 151.791 108.175 153.223 107.64C154.579 107.134 155.829 106.128 157.013 104.784C159.37 102.109 161.921 97.5645 164.837 90.7908L161.163 89.2093C158.279 95.9102 155.93 99.9632 154.012 102.14C153.059 103.221 152.328 103.705 151.824 103.893C151.396 104.052 151.078 104.026 150.732 103.867C150.311 103.675 149.765 103.241 149.111 102.409C148.468 101.59 147.806 100.499 147.117 99.1546C145.839 96.6621 144.582 93.5419 143.205 90.1202L142.99 89.5869L142.855 89.2521L139.145 90.748ZM120.564 74.7072C122.64 75.7276 124 77.7868 124 80.3914C124 81.3186 123.705 82.0537 123.552 82.3979C123.364 82.8214 123.137 83.1991 122.924 83.5113C122.499 84.1351 121.952 84.7604 121.344 85.2985C120.775 85.8025 119.908 86.4484 118.815 86.8122C117.663 87.1958 115.69 87.4004 113.967 85.9643C113.718 85.7565 113.506 85.6154 113.211 85.4243L113.15 85.385C112.896 85.223 112.29 84.8356 111.768 84.3128C110.17 82.7113 110 80.7175 110 79.1414C110 77.2126 111.365 75.6027 113.182 75.2251C113.23 75.1925 113.278 75.1616 113.324 75.1323C114.046 74.674 114.827 74.3838 115.554 74.2136C116.93 73.8917 118.814 73.8468 120.564 74.7072Z" fill="black"/>
</svg>
